<mxfile host="app.diagrams.net" modified="2024-11-02T03:53:48.162Z" agent="Mozilla/5.0 (Windows NT 10.0; Win64; x64) AppleWebKit/537.36 (KHTML, like Gecko) Chrome/130.0.0.0 Safari/537.36" etag="jPJEL_5ncUx738IXAahe" version="21.8.2" type="device">
  <diagram id="C5RBs43oDa-KdzZeNtuy" name="Page-1">
    <mxGraphModel dx="1039" dy="526" grid="1" gridSize="10" guides="1" tooltips="1" connect="1" arrows="1" fold="1" page="1" pageScale="1" pageWidth="827" pageHeight="1169" math="0" shadow="0">
      <root>
        <mxCell id="WIyWlLk6GJQsqaUBKTNV-0" />
        <mxCell id="WIyWlLk6GJQsqaUBKTNV-1" parent="WIyWlLk6GJQsqaUBKTNV-0" />
        <mxCell id="LRv1FJYrqT2xt5BSngTr-2" style="edgeStyle=orthogonalEdgeStyle;rounded=0;orthogonalLoop=1;jettySize=auto;html=1;exitX=0.5;exitY=1;exitDx=0;exitDy=0;entryX=0.5;entryY=0;entryDx=0;entryDy=0;" edge="1" parent="WIyWlLk6GJQsqaUBKTNV-1" source="LRv1FJYrqT2xt5BSngTr-0" target="LRv1FJYrqT2xt5BSngTr-1">
          <mxGeometry relative="1" as="geometry" />
        </mxCell>
        <mxCell id="LRv1FJYrqT2xt5BSngTr-0" value="Generate Training Dataset. This involves sequences of numbers as well as the answer to the sequence which is the first three numbers reversed." style="rounded=1;whiteSpace=wrap;html=1;fontSize=12;glass=0;strokeWidth=1;shadow=0;" vertex="1" parent="WIyWlLk6GJQsqaUBKTNV-1">
          <mxGeometry x="40" y="120" width="240" height="80" as="geometry" />
        </mxCell>
        <mxCell id="LRv1FJYrqT2xt5BSngTr-4" style="edgeStyle=orthogonalEdgeStyle;rounded=0;orthogonalLoop=1;jettySize=auto;html=1;exitX=0.5;exitY=1;exitDx=0;exitDy=0;entryX=0.5;entryY=0;entryDx=0;entryDy=0;" edge="1" parent="WIyWlLk6GJQsqaUBKTNV-1" source="LRv1FJYrqT2xt5BSngTr-1" target="LRv1FJYrqT2xt5BSngTr-3">
          <mxGeometry relative="1" as="geometry" />
        </mxCell>
        <mxCell id="LRv1FJYrqT2xt5BSngTr-1" value="Generate Test Dataset. Similar structure to training data" style="rounded=1;whiteSpace=wrap;html=1;fontSize=12;glass=0;strokeWidth=1;shadow=0;" vertex="1" parent="WIyWlLk6GJQsqaUBKTNV-1">
          <mxGeometry x="70" y="250" width="180" height="80" as="geometry" />
        </mxCell>
        <mxCell id="LRv1FJYrqT2xt5BSngTr-6" style="edgeStyle=orthogonalEdgeStyle;rounded=0;orthogonalLoop=1;jettySize=auto;html=1;entryX=0.5;entryY=0;entryDx=0;entryDy=0;" edge="1" parent="WIyWlLk6GJQsqaUBKTNV-1" source="LRv1FJYrqT2xt5BSngTr-3" target="LRv1FJYrqT2xt5BSngTr-5">
          <mxGeometry relative="1" as="geometry" />
        </mxCell>
        <mxCell id="LRv1FJYrqT2xt5BSngTr-3" value="Generate two models using parameters. Layer numbers, LSTM layers, and dense layers." style="rounded=1;whiteSpace=wrap;html=1;fontSize=12;glass=0;strokeWidth=1;shadow=0;" vertex="1" parent="WIyWlLk6GJQsqaUBKTNV-1">
          <mxGeometry x="45" y="380" width="230" height="80" as="geometry" />
        </mxCell>
        <mxCell id="LRv1FJYrqT2xt5BSngTr-11" style="edgeStyle=orthogonalEdgeStyle;rounded=0;orthogonalLoop=1;jettySize=auto;html=1;exitX=1;exitY=0.5;exitDx=0;exitDy=0;entryX=0;entryY=0.5;entryDx=0;entryDy=0;" edge="1" parent="WIyWlLk6GJQsqaUBKTNV-1" source="LRv1FJYrqT2xt5BSngTr-5" target="LRv1FJYrqT2xt5BSngTr-7">
          <mxGeometry relative="1" as="geometry" />
        </mxCell>
        <mxCell id="LRv1FJYrqT2xt5BSngTr-5" value="Configure the optimizer and other parts of the model." style="rounded=1;whiteSpace=wrap;html=1;fontSize=12;glass=0;strokeWidth=1;shadow=0;" vertex="1" parent="WIyWlLk6GJQsqaUBKTNV-1">
          <mxGeometry x="45" y="510" width="230" height="80" as="geometry" />
        </mxCell>
        <mxCell id="LRv1FJYrqT2xt5BSngTr-12" style="edgeStyle=orthogonalEdgeStyle;rounded=0;orthogonalLoop=1;jettySize=auto;html=1;exitX=0.5;exitY=1;exitDx=0;exitDy=0;entryX=0.5;entryY=0;entryDx=0;entryDy=0;" edge="1" parent="WIyWlLk6GJQsqaUBKTNV-1" source="LRv1FJYrqT2xt5BSngTr-7" target="LRv1FJYrqT2xt5BSngTr-10">
          <mxGeometry relative="1" as="geometry" />
        </mxCell>
        <mxCell id="LRv1FJYrqT2xt5BSngTr-7" value="Train the model using epoch, batch,&lt;br&gt;optimizer, and other hyper parameters.&lt;br&gt;&lt;br&gt;Encode training data, pass encoding hidden and case states to decoder, decode using LSTM and dense layer,&lt;br&gt;Finally convert it from one hot back to numbers we can read." style="rounded=1;whiteSpace=wrap;html=1;fontSize=12;glass=0;strokeWidth=1;shadow=0;" vertex="1" parent="WIyWlLk6GJQsqaUBKTNV-1">
          <mxGeometry x="340" y="120" width="230" height="150" as="geometry" />
        </mxCell>
        <mxCell id="LRv1FJYrqT2xt5BSngTr-14" style="edgeStyle=orthogonalEdgeStyle;rounded=0;orthogonalLoop=1;jettySize=auto;html=1;exitX=0.5;exitY=1;exitDx=0;exitDy=0;entryX=0.5;entryY=0;entryDx=0;entryDy=0;" edge="1" parent="WIyWlLk6GJQsqaUBKTNV-1" source="LRv1FJYrqT2xt5BSngTr-10" target="LRv1FJYrqT2xt5BSngTr-13">
          <mxGeometry relative="1" as="geometry" />
        </mxCell>
        <mxCell id="LRv1FJYrqT2xt5BSngTr-10" value="Now use the test dataset on the model.&lt;br&gt;&lt;br&gt;This is similar to training, but the neural network is not changing." style="rounded=1;whiteSpace=wrap;html=1;fontSize=12;glass=0;strokeWidth=1;shadow=0;" vertex="1" parent="WIyWlLk6GJQsqaUBKTNV-1">
          <mxGeometry x="340" y="300" width="230" height="90" as="geometry" />
        </mxCell>
        <mxCell id="LRv1FJYrqT2xt5BSngTr-16" style="edgeStyle=orthogonalEdgeStyle;rounded=0;orthogonalLoop=1;jettySize=auto;html=1;exitX=0.5;exitY=1;exitDx=0;exitDy=0;entryX=0.5;entryY=0;entryDx=0;entryDy=0;" edge="1" parent="WIyWlLk6GJQsqaUBKTNV-1" source="LRv1FJYrqT2xt5BSngTr-13" target="LRv1FJYrqT2xt5BSngTr-15">
          <mxGeometry relative="1" as="geometry" />
        </mxCell>
        <mxCell id="LRv1FJYrqT2xt5BSngTr-13" value="Measure amount of correct answers and print samples." style="rounded=1;whiteSpace=wrap;html=1;fontSize=12;glass=0;strokeWidth=1;shadow=0;" vertex="1" parent="WIyWlLk6GJQsqaUBKTNV-1">
          <mxGeometry x="340" y="420" width="230" height="90" as="geometry" />
        </mxCell>
        <mxCell id="LRv1FJYrqT2xt5BSngTr-15" value="Print accuracy" style="rounded=1;whiteSpace=wrap;html=1;fontSize=12;glass=0;strokeWidth=1;shadow=0;" vertex="1" parent="WIyWlLk6GJQsqaUBKTNV-1">
          <mxGeometry x="340" y="530" width="230" height="90" as="geometry" />
        </mxCell>
      </root>
    </mxGraphModel>
  </diagram>
</mxfile>
